<svg width="86" height="24" viewBox="0 0 86 24" fill="none" xmlns="http://www.w3.org/2000/svg">
<path d="M1.51288 23.6028C6.36635 23.6082 11.7639 23.624 16.2715 23.627C19.5268 23.627 22.1475 20.9842 22.1475 17.7473C22.1475 14.5105 19.5268 11.8676 16.2715 11.8676C8.11523 11.8856 2.74266 20.7112 1.51288 23.6028Z" fill="url(#paint0_linear_7670_28273)"/>
<path d="M1.47473 0C0.657842 0 0.000207651 0.658351 0.000207651 1.47613V2.95817L0 23.6047C2.94924 19.1868 2.63368 18.0853 2.84006 13.5067L2.94924 8.14216V1.47613C2.94907 0.658351 2.29162 0 1.47473 0Z" fill="url(#paint1_linear_7670_28273)"/>
<path d="M73.2543 16.2596C73.2543 17.0056 73.3683 17.6999 73.5962 18.3423C73.8242 18.964 74.1454 19.5029 74.5599 19.9588C74.9744 20.394 75.4821 20.7463 76.0831 21.0157C76.6841 21.2644 77.3576 21.3888 78.1037 21.3888C78.8497 21.3888 79.5233 21.2644 80.1243 21.0157C80.7253 20.7463 81.233 20.394 81.6475 19.9588C82.062 19.5029 82.3832 18.964 82.6111 18.3423C82.8391 17.6999 82.9531 17.0056 82.9531 16.2596C82.9531 15.5135 82.8391 14.8296 82.6111 14.2079C82.3832 13.5655 82.062 13.0266 81.6475 12.5914C81.233 12.1355 80.7253 11.7832 80.1243 11.5345C79.5233 11.2651 78.8497 11.1304 78.1037 11.1304C77.3576 11.1304 76.6841 11.2651 76.0831 11.5345C75.4821 11.7832 74.9744 12.1355 74.5599 12.5914C74.1454 13.0266 73.8242 13.5655 73.5962 14.2079C73.3683 14.8296 73.2543 15.5135 73.2543 16.2596ZM70.27 16.2596C70.27 15.1819 70.4669 14.1768 70.8607 13.2442C71.2751 12.3117 71.8347 11.4931 72.5393 10.7884C73.2439 10.0838 74.0729 9.53465 75.0262 9.14089C75.9795 8.72641 77.0053 8.51917 78.1037 8.51917C79.202 8.51917 80.2279 8.72641 81.1812 9.14089C82.1345 9.53465 82.9634 10.0838 83.6681 10.7884C84.3727 11.4931 84.9219 12.3117 85.3156 13.2442C85.7301 14.1768 85.9373 15.1819 85.9373 16.2596C85.9373 17.3372 85.7301 18.3527 85.3156 19.306C84.9219 20.2386 84.3727 21.0572 83.6681 21.7618C82.9634 22.4457 82.1345 22.9949 81.1812 23.4093C80.2279 23.8031 79.202 24 78.1037 24C77.0053 24 75.9795 23.8031 75.0262 23.4093C74.0729 22.9949 73.2439 22.4457 72.5393 21.7618C71.8347 21.0572 71.2751 20.2386 70.8607 19.306C70.4669 18.3527 70.27 17.3372 70.27 16.2596Z" fill="#1A2333"/>
<path d="M61.8911 8.8922H64.6888V11.1615H64.751C64.9375 10.7677 65.1862 10.4154 65.4971 10.1046C65.8079 9.77297 66.1499 9.4932 66.5229 9.26523C66.9167 9.03727 67.3415 8.86112 67.7974 8.73677C68.2534 8.5917 68.7093 8.51917 69.1652 8.51917C69.6212 8.51917 70.0356 8.58134 70.4087 8.70569L70.2843 11.721C70.0564 11.6589 69.8284 11.607 69.6004 11.5656C69.3725 11.5241 69.1445 11.5034 68.9165 11.5034C67.5488 11.5034 66.5022 11.8868 65.7769 12.6536C65.0515 13.4204 64.6888 14.612 64.6888 16.2285V23.6269H61.8911V8.8922Z" fill="#1A2333"/>
<path d="M56.5064 8.89218H59.3042V23.6269H56.5064V8.89218ZM55.8536 3.60757C55.8536 3.04802 56.0505 2.57137 56.4443 2.17762C56.8588 1.76314 57.3458 1.5559 57.9053 1.5559C58.4649 1.5559 58.9415 1.76314 59.3353 2.17762C59.7497 2.57137 59.957 3.04802 59.957 3.60757C59.957 4.16712 59.7497 4.65413 59.3353 5.06861C58.9415 5.46236 58.4649 5.65924 57.9053 5.65924C57.3458 5.65924 56.8588 5.46236 56.4443 5.06861C56.0505 4.65413 55.8536 4.16712 55.8536 3.60757Z" fill="#1A2333"/>
<path d="M50.9033 0.125992H53.7011V23.627H50.9033V0.125992Z" fill="#1A2333"/>
<path d="M33.5473 0.125992H36.345V11.0061H36.4072C36.9046 10.2393 37.6196 9.63829 38.5521 9.20309C39.4847 8.74716 40.4795 8.5192 41.5364 8.5192C42.6762 8.5192 43.702 8.71607 44.6139 9.10983C45.5465 9.50358 46.334 10.0528 46.9764 10.7574C47.6396 11.4413 48.1473 12.2599 48.4996 13.2132C48.8519 14.1458 49.0281 15.1612 49.0281 16.2596C49.0281 17.358 48.8519 18.3734 48.4996 19.306C48.1473 20.2386 47.6396 21.0572 46.9764 21.7618C46.334 22.4664 45.5465 23.0156 44.6139 23.4094C43.702 23.8031 42.6762 24 41.5364 24C40.5416 24 39.5676 23.7824 38.6143 23.3472C37.6817 22.912 36.946 22.3006 36.4072 21.5131H36.345V23.627H33.5473V0.125992ZM41.1944 21.3888C41.9405 21.3888 42.614 21.2644 43.215 21.0157C43.816 20.7463 44.3238 20.394 44.7382 19.9588C45.1527 19.5029 45.4739 18.9641 45.7019 18.3424C45.9299 17.6999 46.0439 17.0057 46.0439 16.2596C46.0439 15.5135 45.9299 14.8296 45.7019 14.2079C45.4739 13.5655 45.1527 13.0267 44.7382 12.5915C44.3238 12.1355 43.816 11.7832 43.215 11.5345C42.614 11.2651 41.9405 11.1304 41.1944 11.1304C40.4484 11.1304 39.7749 11.2651 39.1739 11.5345C38.5729 11.7832 38.0651 12.1355 37.6506 12.5915C37.2362 13.0267 36.9149 13.5655 36.687 14.2079C36.459 14.8296 36.345 15.5135 36.345 16.2596C36.345 17.0057 36.459 17.6999 36.687 18.3424C36.9149 18.9641 37.2362 19.5029 37.6506 19.9588C38.0651 20.394 38.5729 20.7463 39.1739 21.0157C39.7749 21.2644 40.4484 21.3888 41.1944 21.3888Z" fill="#1A2333"/>
<defs>
<linearGradient id="paint0_linear_7670_28273" x1="10.8557" y1="19.7956" x2="1.57759" y2="23.6047" gradientUnits="userSpaceOnUse">
<stop stop-color="#F26835"/>
<stop offset="1" stop-color="#DC450C"/>
</linearGradient>
<linearGradient id="paint1_linear_7670_28273" x1="1.47615" y1="11.4942" x2="1.47615" y2="23.6611" gradientUnits="userSpaceOnUse">
<stop stop-color="#F26835"/>
<stop offset="1" stop-color="#DC450C"/>
</linearGradient>
</defs>
</svg>
